<svg xmlns="http://www.w3.org/2000/svg" width="100.003" height="100.003" viewBox="0 0 100.003 100.003">
  <g id="cookie" transform="translate(0 -2.401)">
    <path id="Path_2021" data-name="Path 2021" d="M94.1,33.9h0a19.372,19.372,0,0,1-5.358-9.368h0A19.2,19.2,0,0,0,71.393,9.842h0a19.036,19.036,0,0,1-10.069-3.7h0a19,19,0,0,0-22.643,0h0a19.035,19.035,0,0,1-10.069,3.7h0A19.2,19.2,0,0,0,11.265,24.534h0A19.369,19.369,0,0,1,5.907,33.9h0a19.461,19.461,0,0,0-3.932,22.51h0A19.485,19.485,0,0,1,3.836,67.065h0a19.356,19.356,0,0,0,11.321,19.8h0a19.191,19.191,0,0,1,8.209,6.953h0a19.057,19.057,0,0,0,21.278,7.818h0a18.973,18.973,0,0,1,10.716,0h0a19.057,19.057,0,0,0,21.278-7.818h0a19.191,19.191,0,0,1,8.209-6.953h0a19.356,19.356,0,0,0,11.321-19.8h0a19.487,19.487,0,0,1,1.861-10.653h0A19.46,19.46,0,0,0,94.1,33.9Z" transform="translate(0)" fill="#fdca74"/>
    <path id="Path_2022" data-name="Path 2022" d="M31.417,93.825h0a19.191,19.191,0,0,0-8.209-6.953h0a19.356,19.356,0,0,1-11.321-19.8h0a19.485,19.485,0,0,0-1.861-10.653h0a19.461,19.461,0,0,1,3.932-22.51h0a19.372,19.372,0,0,0,5.358-9.368h0A19.2,19.2,0,0,1,36.662,9.853h0a19.035,19.035,0,0,0,10.069-3.7h0a19.015,19.015,0,0,1,7.3-3.307A19,19,0,0,0,38.683,6.154h0a19.035,19.035,0,0,1-10.069,3.7h0A19.2,19.2,0,0,0,11.268,24.546h0A19.37,19.37,0,0,1,5.91,33.914h0a19.461,19.461,0,0,0-3.932,22.51h0A19.485,19.485,0,0,1,3.838,67.077h0a19.356,19.356,0,0,0,11.321,19.8h0a19.191,19.191,0,0,1,8.209,6.953h0a19.064,19.064,0,0,0,19.946,8.155A19.129,19.129,0,0,1,31.417,93.825Z" transform="translate(-0.002 -0.011)" fill="#e6b25b"/>
    <g id="Group_2263" data-name="Group 2263" transform="translate(26.713 47.871)">
      <path id="Path_2023" data-name="Path 2023" d="M138.275,239.758a1.509,1.509,0,0,1-1.509-1.509v-3.942a1.509,1.509,0,0,1,3.018,0v3.942A1.509,1.509,0,0,1,138.275,239.758Z" transform="translate(-136.766 -232.798)" fill="#3b484a"/>
      <path id="Path_2024" data-name="Path 2024" d="M361.3,239.758a1.509,1.509,0,0,1-1.509-1.509v-3.942a1.509,1.509,0,0,1,3.018,0v3.942A1.509,1.509,0,0,1,361.3,239.758Z" transform="translate(-316.226 -232.798)" fill="#3b484a"/>
      <path id="Path_2025" data-name="Path 2025" d="M227.638,256.969a8.619,8.619,0,0,1-6.512-2.894,1.509,1.509,0,0,1,2.272-1.986,5.757,5.757,0,0,0,8.479,0,1.509,1.509,0,0,1,2.272,1.987A8.619,8.619,0,0,1,227.638,256.969Z" transform="translate(-204.349 -247.906)" fill="#3b484a"/>
    </g>
    <path id="Path_2026" data-name="Path 2026" d="M314.018,99.474l-1.173-.531a7.056,7.056,0,0,0-6.558.39l-2.069,1.251a7.056,7.056,0,0,0-3.287,7.331h0a7.056,7.056,0,0,0,6.936,5.764h3.243a7.056,7.056,0,0,0,7.056-7.056v-.72A7.055,7.055,0,0,0,314.018,99.474Z" transform="translate(-242.057 -76.97)" fill="#a8503c"/>
    <path id="Path_2027" data-name="Path 2027" d="M123.48,109.788l-.578-.308a4.8,4.8,0,0,0-4.818.178l-1.163.735a4.794,4.794,0,0,0-1.212,7.008l.962,1.228a4.794,4.794,0,0,0,8.113-.917l.778-1.655A4.794,4.794,0,0,0,123.48,109.788Z" transform="translate(-92.288 -85.487)" fill="#993e29"/>
    <path id="Path_2028" data-name="Path 2028" d="M249.984,394.372l-.308.578a4.8,4.8,0,0,0,.178,4.818l.735,1.163a4.794,4.794,0,0,0,7.008,1.212l1.228-.962a4.794,4.794,0,0,0-.917-8.113l-1.655-.778A4.794,4.794,0,0,0,249.984,394.372Z" transform="translate(-200.455 -312.431)" fill="#a8503c"/>
    <g id="Group_2264" data-name="Group 2264" transform="translate(14.652 65.183)">
      <path id="Path_2029" data-name="Path 2029" d="M376.206,346.184l.172.565a4.322,4.322,0,0,0,3.184,2.958l1.209.272a4.321,4.321,0,0,0,5.239-3.694l.17-1.4a4.321,4.321,0,0,0-5.755-4.586l-1.551.559A4.32,4.32,0,0,0,376.206,346.184Z" transform="translate(-317.226 -336.175)" fill="#993e29"/>
      <path id="Path_2030" data-name="Path 2030" d="M91.486,327.517l-1.193-3.032a6.412,6.412,0,0,0-5.505-4.047l-2.443-.176a6.413,6.413,0,0,0-5.245,2.125l-.456.511a6.412,6.412,0,0,0-1.352,6.135l.746,2.453a6.413,6.413,0,0,0,5.667,4.531l3.347.245a6.412,6.412,0,0,0,6.435-8.744Z" transform="translate(-75.015 -320.245)" fill="#993e29"/>
    </g>
  </g>
</svg>
