<svg xmlns="http://www.w3.org/2000/svg" width="26.004" height="22" viewBox="0 0 26.004 22"><defs><style>.a{fill:none;stroke-linejoin:round;}.b,.c{stroke:none;}.c{fill:#f62d64;}</style></defs><g transform="translate(-232.347 -427)"><g class="a" transform="translate(232.347 427)"><path class="b" d="M13,4.125A7.137,7.137,0,0,0,6.5,0,6.228,6.228,0,0,0,0,6.187C0,11.04,5.48,14.792,13,22c7.522-7.208,13-10.96,13-15.813A6.228,6.228,0,0,0,19.5,0,7.134,7.134,0,0,0,13,4.125Z"/><path class="c" d="M 6.500942230224609 3 C 4.472362518310547 3 3.000001907348633 4.340539932250977 3.000001907348633 6.1875 C 3.000001907348633 7.259940147399902 3.525962829589844 8.386810302734375 4.705381393432617 9.841290473937988 C 6.076572418212891 11.53225994110107 8.203281402587891 13.47756958007813 10.66581249237061 15.73003959655762 C 11.39686298370361 16.39873504638672 12.18161773681641 17.11655235290527 13.00189208984375 17.87825393676758 C 13.82216644287109 17.11655235290527 14.60692119598389 16.39873504638672 15.33797168731689 15.73003959655762 C 17.80050277709961 13.47756958007813 19.92721176147461 11.53225994110107 21.29840278625488 9.841290473937988 C 22.47782135009766 8.386810302734375 23.00378227233887 7.259940147399902 23.00378227233887 6.1875 C 23.00378227233887 4.340539932250977 21.53142166137695 3 19.50284194946289 3 C 17.92972183227539 3 16.29494094848633 3.990320205688477 15.78111171722412 5.254570007324219 C 15.32151222229004 6.38539981842041 14.22255229949951 7.125 13.00189208984375 7.125 C 11.78123188018799 7.125 10.68227195739746 6.38539981842041 10.22267246246338 5.254570007324219 C 9.708841323852539 3.990320205688477 8.074062347412109 3 6.500942230224609 3 M 6.500942230224609 0 C 9.322351455688477 0 12.03397178649902 1.743499755859375 13.00189208984375 4.125 C 13.96981239318848 1.743499755859375 16.67854309082031 0 19.50284194946289 0 C 23.17659187316895 0 26.00378227233887 2.656499862670898 26.00378227233887 6.1875 C 26.00378227233887 11.039870262146 20.52421188354492 14.79224967956543 13.00189208984375 22 C 5.479572296142578 14.79224967956543 1.9073486328125e-06 11.039870262146 1.9073486328125e-06 6.1875 C 1.9073486328125e-06 2.656499862670898 2.827192306518555 0 6.500942230224609 0 Z"/></g></g></svg>