<svg xmlns="http://www.w3.org/2000/svg" width="25.999" height="26" viewBox="0 0 25.999 26"><defs><style>.a{fill:#11e84a;}</style></defs><g transform="translate(-13.262 -13.26)"><g transform="translate(13.262 13.26)"><rect class="a" width="2.08" height="9.511" rx="1.04" transform="translate(8.196 6.725) rotate(135)"/><rect class="a" width="2.08" height="5.944" rx="1.04" transform="translate(6.383 0.467) rotate(90)"/><rect class="a" width="2.08" height="5.944" rx="1.04" transform="translate(0.439 0.467)"/></g><g transform="translate(13.262 31.064)"><rect class="a" width="2.08" height="9.511" rx="1.04" transform="translate(1.471 8.196) rotate(-135)"/><rect class="a" width="2.08" height="5.944" rx="1.04" transform="translate(0.439 7.729) rotate(-90)"/><rect class="a" width="2.08" height="5.944" rx="1.04" transform="translate(0.439 1.785)"/></g><g transform="translate(31.064 13.26)"><rect class="a" width="2.08" height="9.511" rx="1.04" transform="translate(6.725 0) rotate(45)"/><rect class="a" width="2.08" height="5.944" rx="1.04" transform="translate(7.757 0.467) rotate(90)"/><rect class="a" width="2.08" height="5.944" rx="1.04" transform="translate(5.677 0.467)"/></g><g transform="translate(31.064 31.064)"><rect class="a" width="2.08" height="9.511" rx="1.04" transform="translate(0 1.471) rotate(-45)"/><rect class="a" width="2.08" height="5.944" rx="1.04" transform="translate(1.813 7.729) rotate(-90)"/><rect class="a" width="2.08" height="5.944" rx="1.04" transform="translate(5.677 1.785)"/></g><path class="a" d="M1.189,0H7.727A1.189,1.189,0,0,1,8.916,1.189V7.727A1.189,1.189,0,0,1,7.727,8.916H1.189A1.189,1.189,0,0,1,0,7.727V1.189A1.189,1.189,0,0,1,1.189,0Z" transform="translate(21.725 21.725)"/></g></svg>