<svg xmlns="http://www.w3.org/2000/svg" width="25.999" height="26" viewBox="0 0 25.999 26"><defs><style>.a,.d{fill:#11e84a;}.b{fill:none;}.c,.d{stroke:none;}</style></defs><g transform="translate(-22 -22)"><g transform="translate(22 22)"><rect class="a" width="2.08" height="9.511" rx="1.04" transform="translate(0 1.471) rotate(-45)"/><rect class="a" width="2.08" height="5.944" rx="1.04" transform="translate(1.813 7.729) rotate(-90)"/><rect class="a" width="2.08" height="5.944" rx="1.04" transform="translate(5.677 1.785)"/></g><g transform="translate(22 39.804)"><rect class="a" width="2.08" height="9.511" rx="1.04" transform="translate(6.725 0) rotate(45)"/><rect class="a" width="2.08" height="5.944" rx="1.04" transform="translate(7.757 0.467) rotate(90)"/><rect class="a" width="2.08" height="5.944" rx="1.04" transform="translate(5.677 0.467)"/></g><g transform="translate(39.803 22)"><rect class="a" width="2.08" height="9.511" rx="1.04" transform="translate(1.471 8.196) rotate(-135)"/><rect class="a" width="2.08" height="5.944" rx="1.04" transform="translate(0.439 7.729) rotate(-90)"/><rect class="a" width="2.08" height="5.944" rx="1.04" transform="translate(0.439 1.785)"/></g><g transform="translate(39.803 39.804)"><rect class="a" width="2.08" height="9.511" rx="1.04" transform="translate(8.196 6.725) rotate(135)"/><rect class="a" width="2.08" height="5.944" rx="1.04" transform="translate(6.383 0.467) rotate(90)"/><rect class="a" width="2.08" height="5.944" rx="1.04" transform="translate(0.439 0.467)"/></g><g class="b" transform="translate(30.464 30.465)"><path class="c" d="M1.189,0H7.727A1.189,1.189,0,0,1,8.916,1.189V7.727A1.189,1.189,0,0,1,7.727,8.916H1.189A1.189,1.189,0,0,1,0,7.727V1.189A1.189,1.189,0,0,1,1.189,0Z"/><path class="d" d="M 1.188848495483398 0.9999985694885254 C 1.084718704223633 0.9999985694885254 0.9999985694885254 1.084718704223633 0.9999985694885254 1.188848495483398 L 0.9999985694885254 7.72748851776123 C 0.9999985694885254 7.831618309020996 1.084718704223633 7.916338443756104 1.188848495483398 7.916338443756104 L 7.72748851776123 7.916338443756104 C 7.831618309020996 7.916338443756104 7.916338443756104 7.831618309020996 7.916338443756104 7.72748851776123 L 7.916338443756104 5.785998344421387 L 7.916338443756104 1.188848495483398 C 7.916338443756104 1.084718704223633 7.831618309020996 0.9999985694885254 7.72748851776123 0.9999985694885254 L 1.188848495483398 0.9999985694885254 M 1.188848495483398 -1.9073486328125e-06 L 7.72748851776123 -1.9073486328125e-06 C 8.384068489074707 -1.9073486328125e-06 8.916338920593262 0.5322685241699219 8.916338920593262 1.188848495483398 L 8.916338920593262 5.785998344421387 L 8.916338920593262 7.72748851776123 C 8.916338920593262 8.384068489074707 8.384068489074707 8.916338920593262 7.72748851776123 8.916338920593262 L 1.188848495483398 8.916338920593262 C 0.5322685241699219 8.916338920593262 -1.9073486328125e-06 8.384068489074707 -1.9073486328125e-06 7.72748851776123 L -1.9073486328125e-06 1.188848495483398 C -1.9073486328125e-06 0.5322685241699219 0.5322685241699219 -1.9073486328125e-06 1.188848495483398 -1.9073486328125e-06 Z"/></g><path class="a" d="M.65,0H4.225a.65.65,0,0,1,.65.65V4.225a.65.65,0,0,1-.65.65H.65A.65.65,0,0,1,0,4.225V.65A.65.65,0,0,1,.65,0Z" transform="translate(32.484 32.485)"/></g></svg>