<svg xmlns="http://www.w3.org/2000/svg" width="221.19" height="70" viewBox="0 0 221.19 70">
  <defs>
    <style>
      .cls-1 {
        fill: none;
      }

      .cls-2, .cls-3, .cls-6 {
        fill: #fff;
      }

      .cls-3 {
        font-size: 24px;
        font-family: Poppins-Bold, Poppins;
        letter-spacing: 0.01em;
        font-weight: 700;
      }

      .cls-4 {
        font-family: Poppins-Regular, Poppins;
        font-weight: 400;
      }

      .cls-5, .cls-6 {
        stroke: none;
      }
    </style>
  </defs>
  <g id="MusicLogo_-_Circ_White_" data-name="MusicLogo - Circ (White)" transform="translate(-45 -5)">
    <g id="MusicLogo_-_Circ" data-name="MusicLogo - Circ" transform="translate(-68 0.821)">
      <g id="Path_243" data-name="Path 243" class="cls-1" transform="translate(113 4.179)">
        <path class="cls-5" d="M35,0A34.882,34.882,0,0,1,47.589,2.353,35.288,35.288,0,0,1,65.021,17,34.63,34.63,0,0,1,70,35,35,35,0,1,1,35,0Z"/>
        <path class="cls-6" d="M 34.99997711181641 5 C 30.94780349731445 5 27.01948547363281 5.792510986328125 23.32416534423828 7.355495452880859 C 19.75239181518555 8.866230010986328 16.54354858398438 11.030029296875 13.78678894042969 13.78678894042969 C 11.030029296875 16.54354858398438 8.866230010986328 19.75239181518555 7.355495452880859 23.32416534423828 C 5.792510986328125 27.01948547363281 5 30.94780349731445 5 34.99997711181641 C 5 39.05215072631836 5.792510986328125 42.9804573059082 7.355495452880859 46.67578887939453 C 8.866230010986328 50.24756622314453 11.030029296875 53.45640563964844 13.78678894042969 56.21316528320313 C 16.54354858398438 58.96992492675781 19.75239181518555 61.13372421264648 23.32416534423828 62.64445877075195 C 27.01949691772461 64.20744323730469 30.94780349731445 64.99995422363281 34.99997711181641 64.99995422363281 C 39.05215072631836 64.99995422363281 42.9804573059082 64.20744323730469 46.67577743530273 62.64445877075195 C 50.24756622314453 61.13372421264648 53.45640563964844 58.96992492675781 56.21316528320313 56.21316528320313 C 58.96992492675781 53.45640563964844 61.13372421264648 50.24756622314453 62.64445877075195 46.67577743530273 C 64.20744323730469 42.9804573059082 64.99995422363281 39.05215072631836 64.99995422363281 34.99997711181641 C 64.99995422363281 32.20221710205078 64.61855316162109 29.43301773071289 63.86635208129883 26.76927185058594 C 63.14545822143555 24.2164306640625 62.09819030761719 21.80525588989258 60.75307083129883 19.6018180847168 C 58.70444488525391 16.24436187744141 56.0464973449707 13.2956428527832 53.06523132324219 11.07339096069336 C 50.76329803466797 9.356296539306641 48.25417709350586 7.956443786621094 45.80693817138672 7.024311065673828 C 42.23574829101563 5.662162780761719 38.70076370239258 5 34.99997711181641 5 M 34.99997711181641 0 C 39.33627319335938 0 43.48837661743164 0.78857421875 47.58885955810547 2.352615356445313 C 50.45335006713867 3.443672180175781 53.36753845214844 5.061073303222656 56.05479049682617 7.065578460693359 C 59.49532318115234 9.630165100097656 62.61379241943359 13.05193710327148 65.02125549316406 16.99747085571289 C 68.13478088378906 22.09775161743164 69.99995422363281 28.3310432434082 69.99995422363281 34.99997711181641 C 69.99995422363281 54.32992553710938 54.32992553710938 69.99995422363281 34.99997711181641 69.99995422363281 C 15.67001724243164 69.99995422363281 0 54.32992553710938 0 34.99997711181641 C 0 15.67001724243164 15.67001724243164 0 34.99997711181641 0 Z"/>
      </g>
      <g id="Group_305" data-name="Group 305" transform="translate(127.907 27.643)">
        <g id="Group_303" data-name="Group 303" transform="translate(21.054 0)">
          <path id="Path_242" data-name="Path 242" class="cls-2" d="M9.665.743a1.577,1.577,0,0,1,2.677,0l9.449,15.606a1.507,1.507,0,0,1-1.339,2.27H1.555a1.507,1.507,0,0,1-1.339-2.27l5.026-8.3Z" transform="translate(18.619 0) rotate(90)"/>
        </g>
        <g id="Group_304" data-name="Group 304">
          <rect id="Rectangle_15" data-name="Rectangle 15" class="cls-2" width="2.864" height="22.013" rx="1.432" transform="translate(15.755)"/>
          <rect id="Rectangle_16" data-name="Rectangle 16" class="cls-2" width="2.864" height="16.284" rx="1.432" transform="translate(10.503 2.864)"/>
          <rect id="Rectangle_17" data-name="Rectangle 17" class="cls-2" width="2.864" height="10.556" rx="1.432" transform="translate(5.252 5.729)"/>
          <rect id="Rectangle_18" data-name="Rectangle 18" class="cls-2" width="2.864" height="4.827" rx="1.432" transform="translate(0 8.593)"/>
        </g>
      </g>
    </g>
    <text id="Quarantine_radio" data-name="Quarantine
radio" class="cls-3" transform="translate(122.19 35)"><tspan x="0" y="0">Quarantine</tspan><tspan class="cls-4"><tspan x="0" y="27">radio</tspan></tspan></text>
  </g>
</svg>
