<svg xmlns="http://www.w3.org/2000/svg" width="17.75" height="10.498" viewBox="0 0 17.75 10.498">
  <defs>
    <style>
      .cls-1 {
        fill: none;
        stroke: #f8fff9;
        stroke-linecap: round;
        stroke-width: 1.5px;
      }

      .cls-2 {
        fill: #f8fff9;
      }
    </style>
  </defs>
  <g id="Shuffle" transform="translate(-12.25 -15.664)">
    <g id="Group_2268" data-name="Group 2268" transform="translate(13 16)">
      <path id="Path_2032" data-name="Path 2032" class="cls-1" d="M2537.912-6929.2h-4.349c-3.089,0-3.116,6.61-6.213,6.61H2523" transform="translate(-2523 6930.864)"/>
      <g id="Group_2267" data-name="Group 2267" transform="translate(12.781 -0.1)">
        <path id="Polygon_1" data-name="Polygon 1" class="cls-2" d="M1.821.358a.2.2,0,0,1,.358,0L3.855,3.711A.2.2,0,0,1,3.676,4H.324a.2.2,0,0,1-.179-.289Z" transform="translate(4.219 -0.236) rotate(90)"/>
      </g>
    </g>
    <g id="Group_2269" data-name="Group 2269" transform="translate(13 17.886)">
      <path id="Path_2032-2" data-name="Path 2032" class="cls-1" d="M2537.912-6922.546h-4.349c-3.1,0-3.113-6.62-6.213-6.62H2523" transform="translate(-2523 6928.964)"/>
      <g id="Group_2267-2" data-name="Group 2267" transform="translate(13 4.548)">
        <path id="Polygon_1-2" data-name="Polygon 1" class="cls-2" d="M1.685.358a.2.2,0,0,1,.358,0l1.54,3.081a.2.2,0,0,1-.179.289H.324a.2.2,0,0,1-.179-.289Z" transform="translate(3.728) rotate(90)"/>
      </g>
    </g>
  </g>
</svg>
